<?xml version="1.0" encoding="UTF-8" standalone="no"?><svg xmlns="http://www.w3.org/2000/svg" xmlns:xlink="http://www.w3.org/1999/xlink" contentScriptType="application/ecmascript" contentStyleType="text/css" height="863px" preserveAspectRatio="none" style="width:1243px;height:863px;background:#FFFFFF;" version="1.1" viewBox="0 0 1243 863" width="1243px" zoomAndPan="magnify"><defs><filter height="300%" id="f9brcc0zznedf" width="300%" x="-1" y="-1"><feGaussianBlur result="blurOut" stdDeviation="2.0"/><feColorMatrix in="blurOut" result="blurOut2" type="matrix" values="0 0 0 0 0 0 0 0 0 0 0 0 0 0 0 0 0 0 .4 0"/><feOffset dx="4.0" dy="4.0" in="blurOut2" result="blurOut3"/><feBlend in="SourceGraphic" in2="blurOut3" mode="normal"/></filter></defs><g><line style="stroke:#A80036;stroke-width:1.0;stroke-dasharray:5.0,5.0;" x1="24" x2="24" y1="107.7348" y2="759.8313"/><line style="stroke:#A80036;stroke-width:1.0;stroke-dasharray:5.0,5.0;" x1="167.5" x2="167.5" y1="107.7348" y2="759.8313"/><line style="stroke:#A80036;stroke-width:1.0;stroke-dasharray:5.0,5.0;" x1="463.5" x2="463.5" y1="107.7348" y2="759.8313"/><line style="stroke:#A80036;stroke-width:1.0;stroke-dasharray:5.0,5.0;" x1="733" x2="733" y1="107.7348" y2="759.8313"/><line style="stroke:#A80036;stroke-width:1.0;stroke-dasharray:5.0,5.0;" x1="868" x2="868" y1="107.7348" y2="759.8313"/><line style="stroke:#A80036;stroke-width:1.0;stroke-dasharray:5.0,5.0;" x1="994" x2="994" y1="107.7348" y2="759.8313"/><line style="stroke:#A80036;stroke-width:1.0;stroke-dasharray:5.0,5.0;" x1="1169" x2="1169" y1="107.7348" y2="759.8313"/><text fill="#000000" font-family="Chalkduster" font-size="14" lengthAdjust="spacing" textLength="33" x="5" y="103.7746">Test</text><ellipse cx="24.5" cy="32.8674" fill="#FEFECE" filter="url(#f9brcc0zznedf)" rx="8" ry="8" style="stroke:#A80036;stroke-width:2.0;"/><path d="M24.5,40.8674 L24.5,67.8674 M11.5,48.8674 L37.5,48.8674 M24.5,67.8674 L11.5,82.8674 M24.5,67.8674 L37.5,82.8674 " fill="none" filter="url(#f9brcc0zznedf)" style="stroke:#A80036;stroke-width:2.0;"/><text fill="#000000" font-family="Chalkduster" font-size="14" lengthAdjust="spacing" textLength="33" x="5" y="772.7385">Test</text><ellipse cx="24.5" cy="786.6987" fill="#FEFECE" filter="url(#f9brcc0zznedf)" rx="8" ry="8" style="stroke:#A80036;stroke-width:2.0;"/><path d="M24.5,794.6987 L24.5,821.6987 M11.5,802.6987 L37.5,802.6987 M24.5,821.6987 L11.5,836.6987 M24.5,821.6987 L37.5,836.6987 " fill="none" filter="url(#f9brcc0zznedf)" style="stroke:#A80036;stroke-width:2.0;"/><text fill="#000000" font-family="Chalkduster" font-size="14" lengthAdjust="spacing" textLength="150" x="89.5" y="103.7746">Navigation Service</text><ellipse cx="167.5" cy="32.8674" fill="#FEFECE" filter="url(#f9brcc0zznedf)" rx="8" ry="8" style="stroke:#A80036;stroke-width:2.0;"/><path d="M167.5,40.8674 L167.5,67.8674 M154.5,48.8674 L180.5,48.8674 M167.5,67.8674 L154.5,82.8674 M167.5,67.8674 L180.5,82.8674 " fill="none" filter="url(#f9brcc0zznedf)" style="stroke:#A80036;stroke-width:2.0;"/><text fill="#000000" font-family="Chalkduster" font-size="14" lengthAdjust="spacing" textLength="150" x="89.5" y="772.7385">Navigation Service</text><ellipse cx="167.5" cy="786.6987" fill="#FEFECE" filter="url(#f9brcc0zznedf)" rx="8" ry="8" style="stroke:#A80036;stroke-width:2.0;"/><path d="M167.5,794.6987 L167.5,821.6987 M154.5,802.6987 L180.5,802.6987 M167.5,821.6987 L154.5,836.6987 M167.5,821.6987 L180.5,836.6987 " fill="none" filter="url(#f9brcc0zznedf)" style="stroke:#A80036;stroke-width:2.0;"/><text fill="#000000" font-family="Chalkduster" font-size="14" lengthAdjust="spacing" textLength="110" x="405.5" y="103.7746">TCP/IP Stack</text><ellipse cx="463.5" cy="32.8674" fill="#FEFECE" filter="url(#f9brcc0zznedf)" rx="8" ry="8" style="stroke:#A80036;stroke-width:2.0;"/><path d="M463.5,40.8674 L463.5,67.8674 M450.5,48.8674 L476.5,48.8674 M463.5,67.8674 L450.5,82.8674 M463.5,67.8674 L476.5,82.8674 " fill="none" filter="url(#f9brcc0zznedf)" style="stroke:#A80036;stroke-width:2.0;"/><text fill="#000000" font-family="Chalkduster" font-size="14" lengthAdjust="spacing" textLength="110" x="405.5" y="772.7385">TCP/IP Stack</text><ellipse cx="463.5" cy="786.6987" fill="#FEFECE" filter="url(#f9brcc0zznedf)" rx="8" ry="8" style="stroke:#A80036;stroke-width:2.0;"/><path d="M463.5,794.6987 L463.5,821.6987 M450.5,802.6987 L476.5,802.6987 M463.5,821.6987 L450.5,836.6987 M463.5,821.6987 L476.5,836.6987 " fill="none" filter="url(#f9brcc0zznedf)" style="stroke:#A80036;stroke-width:2.0;"/><text fill="#000000" font-family="Chalkduster" font-size="14" lengthAdjust="spacing" textLength="103" x="679" y="103.7746">DNS Resolver</text><ellipse cx="733.5" cy="32.8674" fill="#FEFECE" filter="url(#f9brcc0zznedf)" rx="8" ry="8" style="stroke:#A80036;stroke-width:2.0;"/><path d="M733.5,40.8674 L733.5,67.8674 M720.5,48.8674 L746.5,48.8674 M733.5,67.8674 L720.5,82.8674 M733.5,67.8674 L746.5,82.8674 " fill="none" filter="url(#f9brcc0zznedf)" style="stroke:#A80036;stroke-width:2.0;"/><text fill="#000000" font-family="Chalkduster" font-size="14" lengthAdjust="spacing" textLength="103" x="679" y="772.7385">DNS Resolver</text><ellipse cx="733.5" cy="786.6987" fill="#FEFECE" filter="url(#f9brcc0zznedf)" rx="8" ry="8" style="stroke:#A80036;stroke-width:2.0;"/><path d="M733.5,794.6987 L733.5,821.6987 M720.5,802.6987 L746.5,802.6987 M733.5,821.6987 L720.5,836.6987 M733.5,821.6987 L746.5,836.6987 " fill="none" filter="url(#f9brcc0zznedf)" style="stroke:#A80036;stroke-width:2.0;"/><text fill="#000000" font-family="Chalkduster" font-size="14" lengthAdjust="spacing" textLength="135" x="798" y="85.9072">AAT Mock Server</text><text fill="#000000" font-family="Chalkduster" font-size="14" lengthAdjust="spacing" textLength="121" x="805" y="103.7746">(127.0.0.1:443)</text><ellipse cx="868.5" cy="15" fill="#FEFECE" filter="url(#f9brcc0zznedf)" rx="8" ry="8" style="stroke:#A80036;stroke-width:2.0;"/><path d="M868.5,23 L868.5,50 M855.5,31 L881.5,31 M868.5,50 L855.5,65 M868.5,50 L881.5,65 " fill="none" filter="url(#f9brcc0zznedf)" style="stroke:#A80036;stroke-width:2.0;"/><text fill="#000000" font-family="Chalkduster" font-size="14" lengthAdjust="spacing" textLength="135" x="798" y="772.7385">AAT Mock Server</text><text fill="#000000" font-family="Chalkduster" font-size="14" lengthAdjust="spacing" textLength="121" x="805" y="790.6059">(127.0.0.1:443)</text><ellipse cx="868.5" cy="804.5661" fill="#FEFECE" filter="url(#f9brcc0zznedf)" rx="8" ry="8" style="stroke:#A80036;stroke-width:2.0;"/><path d="M868.5,812.5661 L868.5,839.5661 M855.5,820.5661 L881.5,820.5661 M868.5,839.5661 L855.5,854.5661 M868.5,839.5661 L881.5,854.5661 " fill="none" filter="url(#f9brcc0zznedf)" style="stroke:#A80036;stroke-width:2.0;"/><text fill="#000000" font-family="Chalkduster" font-size="14" lengthAdjust="spacing" textLength="84" x="949" y="103.7746">Boat Mock</text><ellipse cx="994" cy="32.8674" fill="#FEFECE" filter="url(#f9brcc0zznedf)" rx="8" ry="8" style="stroke:#A80036;stroke-width:2.0;"/><path d="M994,40.8674 L994,67.8674 M981,48.8674 L1007,48.8674 M994,67.8674 L981,82.8674 M994,67.8674 L1007,82.8674 " fill="none" filter="url(#f9brcc0zznedf)" style="stroke:#A80036;stroke-width:2.0;"/><text fill="#000000" font-family="Chalkduster" font-size="14" lengthAdjust="spacing" textLength="84" x="949" y="772.7385">Boat Mock</text><ellipse cx="994" cy="786.6987" fill="#FEFECE" filter="url(#f9brcc0zznedf)" rx="8" ry="8" style="stroke:#A80036;stroke-width:2.0;"/><path d="M994,794.6987 L994,821.6987 M981,802.6987 L1007,802.6987 M994,821.6987 L981,836.6987 M994,821.6987 L1007,836.6987 " fill="none" filter="url(#f9brcc0zznedf)" style="stroke:#A80036;stroke-width:2.0;"/><text fill="#000000" font-family="Chalkduster" font-size="14" lengthAdjust="spacing" textLength="140" x="1096" y="103.7746">Mocks Controller</text><ellipse cx="1169" cy="32.8674" fill="#FEFECE" filter="url(#f9brcc0zznedf)" rx="8" ry="8" style="stroke:#A80036;stroke-width:2.0;"/><path d="M1169,40.8674 L1169,67.8674 M1156,48.8674 L1182,48.8674 M1169,67.8674 L1156,82.8674 M1169,67.8674 L1182,82.8674 " fill="none" filter="url(#f9brcc0zznedf)" style="stroke:#A80036;stroke-width:2.0;"/><text fill="#000000" font-family="Chalkduster" font-size="14" lengthAdjust="spacing" textLength="140" x="1096" y="772.7385">Mocks Controller</text><ellipse cx="1169" cy="786.6987" fill="#FEFECE" filter="url(#f9brcc0zznedf)" rx="8" ry="8" style="stroke:#A80036;stroke-width:2.0;"/><path d="M1169,794.6987 L1169,821.6987 M1156,802.6987 L1182,802.6987 M1169,821.6987 L1156,836.6987 M1169,821.6987 L1182,836.6987 " fill="none" filter="url(#f9brcc0zznedf)" style="stroke:#A80036;stroke-width:2.0;"/><polygon fill="#A80036" points="1157,137.0703,1167,141.0703,1157,145.0703,1161,141.0703" style="stroke:#A80036;stroke-width:1.0;"/><line style="stroke:#A80036;stroke-width:1.0;" x1="24.5" x2="1163" y1="141.0703" y2="141.0703"/><text fill="#000000" font-family="Chalkduster" font-size="13" lengthAdjust="spacing" textLength="310" x="31.5" y="135.3929">Tell "Boat Mock" to set expected input to</text><text fill="#000000" font-family="Monaco" font-size="13" lengthAdjust="spacing" textLength="48" x="347.5" y="135.8203">value1</text><polygon fill="#A80036" points="1005,184.9969,995,188.9969,1005,192.9969,1001,188.9969" style="stroke:#A80036;stroke-width:1.0;"/><line style="stroke:#A80036;stroke-width:1.0;" x1="999" x2="1168" y1="188.9969" y2="188.9969"/><text fill="#000000" font-family="Chalkduster" font-size="13" lengthAdjust="spacing" textLength="90" x="1011" y="165.9841">Set expected</text><text fill="#000000" font-family="Chalkduster" font-size="13" lengthAdjust="spacing" textLength="59" x="1023" y="183.3195">input to</text><text fill="#000000" font-family="Monaco" font-size="13" lengthAdjust="spacing" textLength="48" x="1088" y="183.7469">value1</text><polygon fill="#A80036" points="1157,216.3323,1167,220.3323,1157,224.3323,1161,220.3323" style="stroke:#A80036;stroke-width:1.0;"/><line style="stroke:#A80036;stroke-width:1.0;" x1="24.5" x2="1163" y1="220.3323" y2="220.3323"/><text fill="#000000" font-family="Chalkduster" font-size="13" lengthAdjust="spacing" textLength="266" x="31.5" y="214.655">Tell "Boat Mock" to set response to</text><text fill="#000000" font-family="Monaco" font-size="13" lengthAdjust="spacing" textLength="48" x="303.5" y="215.0823">value2</text><polygon fill="#A80036" points="1005,264.2589,995,268.2589,1005,272.2589,1001,268.2589" style="stroke:#A80036;stroke-width:1.0;"/><line style="stroke:#A80036;stroke-width:1.0;" x1="999" x2="1168" y1="268.2589" y2="268.2589"/><text fill="#000000" font-family="Chalkduster" font-size="13" lengthAdjust="spacing" textLength="108" x="1011" y="245.2461">Set configured</text><text fill="#000000" font-family="Chalkduster" font-size="13" lengthAdjust="spacing" textLength="85" x="1023" y="262.5816">response to</text><text fill="#000000" font-family="Monaco" font-size="13" lengthAdjust="spacing" textLength="48" x="1114" y="263.0089">value2</text><polygon fill="#A80036" points="155.5,312.1855,165.5,316.1855,155.5,320.1855,159.5,316.1855" style="stroke:#A80036;stroke-width:1.0;"/><line style="stroke:#A80036;stroke-width:1.0;" x1="24.5" x2="161.5" y1="316.1855" y2="316.1855"/><text fill="#000000" font-family="Chalkduster" font-size="13" lengthAdjust="spacing" textLength="104" x="31.5" y="293.1727">Send GraphQL</text><text fill="#000000" font-family="Chalkduster" font-size="13" lengthAdjust="spacing" textLength="53" x="43.5" y="310.5082">request</text><text fill="#000000" font-family="Monaco" font-size="13" lengthAdjust="spacing" textLength="48" x="102.5" y="310.9355">paddle</text><polygon fill="#A80036" points="451.5,394.783,461.5,398.783,451.5,402.783,455.5,398.783" style="stroke:#A80036;stroke-width:1.0;"/><line style="stroke:#A80036;stroke-width:1.0;" x1="167.5" x2="457.5" y1="398.783" y2="398.783"/><text fill="#000000" font-family="Chalkduster" font-size="13" lengthAdjust="spacing" textLength="163" x="174.5" y="341.0994">Send HTTPS request to</text><text fill="#000000" font-family="Chalkduster" font-size="13" lengthAdjust="spacing" textLength="0" x="186.5" y="358.4348"/><text fill="#000000" font-family="Monaco" font-size="13" lengthAdjust="spacing" textLength="184" x="186.5" y="358.8621">boat.service.domain.com</text><text fill="#000000" font-family="Chalkduster" font-size="13" lengthAdjust="spacing" textLength="0" x="198.5" y="375.7702"/><text fill="#000000" font-family="Monaco" font-size="13" lengthAdjust="spacing" textLength="248" x="198.5" y="376.1976">/api/v1/essentialActions/paddle</text><text fill="#000000" font-family="Chalkduster" font-size="13" lengthAdjust="spacing" textLength="30" x="186.5" y="393.1057">with</text><text fill="#000000" font-family="Monaco" font-size="13" lengthAdjust="spacing" textLength="40" x="222.5" y="393.533">input</text><polygon fill="#A80036" points="721.5,426.1185,731.5,430.1185,721.5,434.1185,725.5,430.1185" style="stroke:#A80036;stroke-width:1.0;"/><line style="stroke:#A80036;stroke-width:1.0;" x1="463.5" x2="727.5" y1="430.1185" y2="430.1185"/><text fill="#000000" font-family="Chalkduster" font-size="13" lengthAdjust="spacing" textLength="56" x="470.5" y="424.4411">Resolve</text><text fill="#000000" font-family="Monaco" font-size="13" lengthAdjust="spacing" textLength="184" x="532.5" y="424.8685">boat.service.domain.com</text><line style="stroke:#A80036;stroke-width:1.0;" x1="733.5" x2="775.5" y1="493.892" y2="493.892"/><line style="stroke:#A80036;stroke-width:1.0;" x1="775.5" x2="775.5" y1="493.892" y2="506.892"/><line style="stroke:#A80036;stroke-width:1.0;" x1="734.5" x2="775.5" y1="506.892" y2="506.892"/><polygon fill="#A80036" points="744.5,502.892,734.5,506.892,744.5,510.892,740.5,506.892" style="stroke:#A80036;stroke-width:1.0;"/><text fill="#000000" font-family="Chalkduster" font-size="13" lengthAdjust="spacing" textLength="58" x="740.5" y="455.0323">Consult</text><text fill="#000000" font-family="Chalkduster" font-size="13" lengthAdjust="spacing" textLength="38" x="752.5" y="471.6235">local</text><text fill="#000000" font-family="Chalkduster" font-size="13" lengthAdjust="spacing" textLength="34" x="752.5" y="488.2146">data</text><polygon fill="#A80036" points="474.5,534.2274,464.5,538.2274,474.5,542.2274,470.5,538.2274" style="stroke:#A80036;stroke-width:1.0;"/><line style="stroke:#A80036;stroke-width:1.0;" x1="468.5" x2="732.5" y1="538.2274" y2="538.2274"/><text fill="#000000" font-family="Monaco" font-size="13" lengthAdjust="spacing" textLength="72" x="480.5" y="532.9774">127.0.0.1</text><polygon fill="#A80036" points="856.5,582.154,866.5,586.154,856.5,590.154,860.5,586.154" style="stroke:#A80036;stroke-width:1.0;"/><line style="stroke:#A80036;stroke-width:1.0;" x1="463.5" x2="862.5" y1="586.154" y2="586.154"/><text fill="#000000" font-family="Chalkduster" font-size="13" lengthAdjust="spacing" textLength="102" x="470.5" y="563.1412">HTTPS request</text><text fill="#000000" font-family="Chalkduster" font-size="13" lengthAdjust="spacing" textLength="0" x="482.5" y="580.4767"/><text fill="#000000" font-family="Monaco" font-size="13" lengthAdjust="spacing" textLength="248" x="482.5" y="580.904">/api/v1/essentialActions/paddle</text><polygon fill="#A80036" points="982,613.4895,992,617.4895,982,621.4895,986,617.4895" style="stroke:#A80036;stroke-width:1.0;"/><line style="stroke:#A80036;stroke-width:1.0;" x1="868.5" x2="988" y1="617.4895" y2="617.4895"/><text fill="#000000" font-family="Monaco" font-size="13" lengthAdjust="spacing" textLength="64" x="875.5" y="612.2395">handle()</text><line style="stroke:#A80036;stroke-width:1.0;" x1="994" x2="1036" y1="666.1604" y2="666.1604"/><line style="stroke:#A80036;stroke-width:1.0;" x1="1036" x2="1036" y1="666.1604" y2="679.1604"/><line style="stroke:#A80036;stroke-width:1.0;" x1="995" x2="1036" y1="679.1604" y2="679.1604"/><polygon fill="#A80036" points="1005,675.1604,995,679.1604,1005,683.1604,1001,679.1604" style="stroke:#A80036;stroke-width:1.0;"/><text fill="#000000" font-family="Chalkduster" font-size="13" lengthAdjust="spacing" textLength="45" x="1001" y="643.1476">Check</text><text fill="#000000" font-family="Monaco" font-size="13" lengthAdjust="spacing" textLength="40" x="1052" y="643.5749">input</text><text fill="#000000" font-family="Chalkduster" font-size="13" lengthAdjust="spacing" textLength="55" x="1013" y="660.483">against</text><text fill="#000000" font-family="Monaco" font-size="13" lengthAdjust="spacing" textLength="64" x="1074" y="660.9104">expected</text><polygon fill="#A80036" points="474.5,706.4958,464.5,710.4958,474.5,714.4958,470.5,710.4958" style="stroke:#A80036;stroke-width:1.0;"/><line style="stroke:#A80036;stroke-width:1.0;" x1="468.5" x2="993" y1="710.4958" y2="710.4958"/><text fill="#000000" font-family="Chalkduster" font-size="13" lengthAdjust="spacing" textLength="85" x="480.5" y="704.8185">Configured</text><text fill="#000000" font-family="Monaco" font-size="13" lengthAdjust="spacing" textLength="64" x="571.5" y="705.2458">response</text><polygon fill="#A80036" points="178.5,737.8313,168.5,741.8313,178.5,745.8313,174.5,741.8313" style="stroke:#A80036;stroke-width:1.0;"/><line style="stroke:#A80036;stroke-width:1.0;" x1="172.5" x2="462.5" y1="741.8313" y2="741.8313"/><text fill="#000000" font-family="Monaco" font-size="13" lengthAdjust="spacing" textLength="64" x="184.5" y="736.5813">response</text><!--MD5=[a2a3d7c1e69f3e402ceb4b305222efde]
@startuml mock-sequence

skinparam DefaultFontName Chalkduster
skinparam DefaultMonospacedFontName Monaco
skinparam DefaultMonospacedFontSize 8

actor "Test" as test
actor "Navigation Service" as system
actor "TCP/IP Stack" as tcp
actor "DNS Resolver" as resolver
actor "AAT Mock Server\n(127.0.0.1:443)" as mockServer
actor "Boat Mock" as boatMock
actor "Mocks Controller" as mocksController

test -> mocksController: Tell "Boat Mock" to set expected input to ""value1""
mocksController -> boatMock: Set expected \n  input to ""value1""
test -> mocksController: Tell "Boat Mock" to set response to ""value2""
mocksController -> boatMock: Set configured \n  response to ""value2""

test -> system: Send GraphQL \n  request ""paddle""

system -> tcp: Send HTTPS request to \n  ""boat.service.domain.com""\n    ""/api/v1/essentialActions/paddle""\n  with ""input""
tcp -> resolver : Resolve ""boat.service.domain.com""
resolver -> resolver : Consult \n  local \n  data
resolver -> tcp: ""127.0.0.1""
tcp -> mockServer: HTTPS request \n  ""/api/v1/essentialActions/paddle""
mockServer -> boatMock: ""handle()""
boatMock -> boatMock: Check ""input""\n  against ""expected""
boatMock -> tcp: Configured ""response""
tcp -> system: ""response""

@enduml

PlantUML version 1.2022.0(Tue Jan 11 18:16:42 EET 2022)
(GPL source distribution)
Java Runtime: OpenJDK Runtime Environment
JVM: OpenJDK 64-Bit Server VM
Default Encoding: UTF-8
Language: en
Country: US
--></g></svg>
