<?xml version="1.0" encoding="UTF-8" standalone="no"?><svg xmlns="http://www.w3.org/2000/svg" xmlns:xlink="http://www.w3.org/1999/xlink" contentScriptType="application/ecmascript" contentStyleType="text/css" height="369px" preserveAspectRatio="none" style="width:1093px;height:369px;background:#FFFFFF;" version="1.1" viewBox="0 0 1093 369" width="1093px" zoomAndPan="magnify"><defs><filter height="300%" id="f3qidmwsvlqq6" width="300%" x="-1" y="-1"><feGaussianBlur result="blurOut" stdDeviation="2.0"/><feColorMatrix in="blurOut" result="blurOut2" type="matrix" values="0 0 0 0 0 0 0 0 0 0 0 0 0 0 0 0 0 0 .4 0"/><feOffset dx="4.0" dy="4.0" in="blurOut2" result="blurOut3"/><feBlend in="SourceGraphic" in2="blurOut3" mode="normal"/></filter></defs><g><!--MD5=[8cd91a8026ecd064a658212c3b3f8063]
cluster comp--><polygon fill="#FFFFFF" filter="url(#f3qidmwsvlqq6)" points="16,6.4602,150,6.4602,157,30.3276,775,30.3276,775,362.4602,16,362.4602,16,6.4602" style="stroke:#000000;stroke-width:1.5;"/><line style="stroke:#000000;stroke-width:1.5;" x1="16" x2="157" y1="30.3276" y2="30.3276"/><text fill="#000000" font-family="Chalkduster" font-size="14" font-weight="bold" lengthAdjust="spacing" textLength="128" x="20" y="22.3674">Local Computer</text><!--MD5=[d3dac679b1e8583df0e4104897d7ce0a]
entity test--><rect fill="#FEFECE" filter="url(#f3qidmwsvlqq6)" height="33.8674" style="stroke:#A80036;stroke-width:1.5;" width="49" x="36.5" y="52.4602"/><rect fill="#FEFECE" height="33.8674" style="stroke:#A80036;stroke-width:1.5;" width="49" x="32.5" y="48.4602"/><text fill="#000000" font-family="Chalkduster" font-size="14" lengthAdjust="spacing" textLength="33" x="40.5" y="70.3674">Test</text><!--MD5=[691a1726be306d84324876b17512fe90]
entity system--><rect fill="#FEFECE" filter="url(#f3qidmwsvlqq6)" height="40.8674" style="stroke:#000000;stroke-width:1.5;" width="180" x="239" y="46.9602"/><polygon fill="#FEFECE" points="402,51.9602,402,65.9602,414,65.9602,414,57.9602,408,51.9602,402,51.9602" style="stroke:#000000;stroke-width:1.5;"/><line style="stroke:#000000;stroke-width:1.5;" x1="408" x2="408" y1="51.9602" y2="57.9602"/><line style="stroke:#000000;stroke-width:1.5;" x1="414" x2="408" y1="57.9602" y2="57.9602"/><text fill="#000000" font-family="Chalkduster" font-size="14" lengthAdjust="spacing" textLength="150" x="249" y="73.8674">Navigation Service</text><!--MD5=[90f28d1a7b3b435e651a0f8ebef65ab3]
entity resolver--><path d="M686.5,46.4602 L686.5,70.4602 M686.5,58.4602 L703.5,58.4602 " fill="none" filter="url(#f3qidmwsvlqq6)" style="stroke:#A80036;stroke-width:1.5;"/><ellipse cx="715.5" cy="58.4602" fill="#FEFECE" filter="url(#f3qidmwsvlqq6)" rx="12" ry="12" style="stroke:#A80036;stroke-width:1.5;"/><text fill="#000000" font-family="Chalkduster" font-size="14" lengthAdjust="spacing" textLength="103" x="655.5" y="88.3674">DNS Resolver</text><!--MD5=[354d7cd853194b011508e07ae649159f]
entity mockServer--><rect fill="#FEFECE" filter="url(#f3qidmwsvlqq6)" height="59.5363" style="stroke:#000000;stroke-width:1.5;" width="165" x="410.5" y="187.4602"/><polygon fill="#FEFECE" points="558.5,192.4602,558.5,206.4602,570.5,206.4602,570.5,198.4602,564.5,192.4602,558.5,192.4602" style="stroke:#000000;stroke-width:1.5;"/><line style="stroke:#000000;stroke-width:1.5;" x1="564.5" x2="564.5" y1="192.4602" y2="198.4602"/><line style="stroke:#000000;stroke-width:1.5;" x1="570.5" x2="564.5" y1="198.4602" y2="198.4602"/><text fill="#000000" font-family="Chalkduster" font-size="14" lengthAdjust="spacing" textLength="135" x="420.5" y="214.3674">AAT Mock Server</text><text fill="#000000" font-family="Chalkduster" font-size="14" lengthAdjust="spacing" textLength="0" x="434.5" y="233.0363"/><text fill="#000000" font-family="Monaco" font-size="14" lengthAdjust="spacing" textLength="104" x="434.5" y="233.4966">127.0.0.1:443</text><!--MD5=[d337faf801ff50e9f3daffe01e962e26]
entity boatMock--><rect fill="#FEFECE" filter="url(#f3qidmwsvlqq6)" height="33.8674" style="stroke:#A80036;stroke-width:1.5;" width="163" x="413.5" y="312.4602"/><rect fill="#FEFECE" height="33.8674" style="stroke:#A80036;stroke-width:1.5;" width="163" x="409.5" y="308.4602"/><text fill="#000000" font-family="Chalkduster" font-size="14" lengthAdjust="spacing" textLength="147" x="417.5" y="330.3674">Boat Service Mock</text><!--MD5=[de223cbbc49594809993a7b1a3ba9a96]
entity mocksController--><ellipse cx="237" cy="208.4602" fill="#FEFECE" filter="url(#f3qidmwsvlqq6)" rx="12" ry="12" style="stroke:#A80036;stroke-width:1.5;"/><polygon fill="#A80036" points="233,196.4602,239,191.4602,237,196.4602,239,201.4602,233,196.4602" style="stroke:#A80036;stroke-width:1.0;"/><text fill="#000000" font-family="Chalkduster" font-size="14" lengthAdjust="spacing" textLength="140" x="167" y="238.3674">Mocks Controller</text><!--MD5=[b1a9b6d92908baa71627f8844f32d6c0]
entity boatService--><polygon fill="#FEFECE" filter="url(#f3qidmwsvlqq6)" points="894,53.4602,904,43.4602,1076,43.4602,1076,81.3276,1066,91.3276,894,91.3276,894,53.4602" style="stroke:#000000;stroke-width:1.5;"/><line style="stroke:#000000;stroke-width:1.5;" x1="1066" x2="1076" y1="53.4602" y2="43.4602"/><line style="stroke:#000000;stroke-width:1.5;" x1="894" x2="1066" y1="53.4602" y2="53.4602"/><line style="stroke:#000000;stroke-width:1.5;" x1="1066" x2="1066" y1="53.4602" y2="91.3276"/><text fill="#000000" font-family="Chalkduster" font-size="14" lengthAdjust="spacing" textLength="142" x="909" y="77.3674">Real Boat Service</text><!--MD5=[21f24d0aa76fb447b6a80bfb7063e72c]
link test to system--><path d="M91.04,67.4602 C126.07,67.4602 183.86,67.4602 233.72,67.4602 " fill="none" id="test-system" style="stroke:#A80036;stroke-width:1.0;"/><polygon fill="#A80036" points="238.83,67.4602,229.83,63.4602,233.83,67.4602,229.83,71.4602,238.83,67.4602" style="stroke:#A80036;stroke-width:1.0;"/><polygon fill="#A80036" points="85.88,67.4602,94.88,71.4602,90.88,67.4602,94.88,63.4602,85.88,67.4602" style="stroke:#A80036;stroke-width:1.0;"/><text fill="#000000" font-family="Chalkduster" font-size="13" lengthAdjust="spacing" textLength="117" x="103.75" y="60.374">Do Boat actions</text><!--MD5=[fe01270d12f95e7fe74abe5644b856f9]
link system to resolver--><path d="M424.3,67.4602 C495.47,67.4602 590.38,67.4602 650.1,67.4602 " fill="none" id="system-resolver" style="stroke:#A80036;stroke-width:1.0;"/><polygon fill="#A80036" points="655.41,67.4602,646.41,63.4602,650.41,67.4602,646.41,71.4602,655.41,67.4602" style="stroke:#A80036;stroke-width:1.0;"/><polygon fill="#A80036" points="419.06,67.4602,428.06,71.4602,424.06,67.4602,428.06,63.4602,419.06,67.4602" style="stroke:#A80036;stroke-width:1.0;"/><text fill="#000000" font-family="Chalkduster" font-size="13" lengthAdjust="spacing" textLength="200" x="437.25" y="60.374">Reach Boat Service domain</text><!--MD5=[15f2921e0b7be2712e12c1b645b7b068]
link resolver to boatService--><path d="M764.06,67.4602 C800,67.4602 847.31,67.4602 888.92,67.4602 " fill="none" id="resolver-boatService" style="stroke:#A80036;stroke-width:1.0;stroke-dasharray:1.0,3.0;"/><polygon fill="#A80036" points="893.97,67.4602,884.97,63.4602,888.97,67.4602,884.97,71.4602,893.97,67.4602" style="stroke:#A80036;stroke-width:1.0;"/><polygon fill="#A80036" points="758.64,67.4602,767.64,71.4602,763.64,67.4602,767.64,63.4602,758.64,67.4602" style="stroke:#A80036;stroke-width:1.0;"/><text fill="#FF0000" font-family="Chalkduster" font-size="24" lengthAdjust="spacing" textLength="15" x="824.75" y="57.3011">X</text><!--MD5=[f18f3956305af749e9ff4242cf53f44b]
link resolver to mockServer--><path d="M667.66,95.6702 C631.42,120.7302 577.63,157.9302 539.33,184.4202 " fill="none" id="resolver-mockServer" style="stroke:#A80036;stroke-width:1.0;"/><polygon fill="#A80036" points="535.2,187.2702,544.8782,185.4448,539.3135,184.4279,540.3305,178.8632,535.2,187.2702" style="stroke:#A80036;stroke-width:1.0;"/><polygon fill="#A80036" points="672.14,92.5702,662.4618,94.3956,668.0265,95.4126,667.0095,100.9772,672.14,92.5702" style="stroke:#A80036;stroke-width:1.0;"/><text fill="#000000" font-family="Chalkduster" font-size="13" lengthAdjust="spacing" textLength="85" x="678.5" y="136.374">Configured</text><text fill="#000000" font-family="Chalkduster" font-size="13" lengthAdjust="spacing" textLength="0" x="638" y="153.7095"/><text fill="#000000" font-family="Monaco" font-size="13" lengthAdjust="spacing" textLength="184" x="638" y="154.1368">Boat Service: 127.0.0.1</text><!--MD5=[33c253c02b74370c622b1545f8fdf435]
link mockServer to boatMock--><path d="M493,252.7902 C493,269.2302 493,288.4902 493,303.2002 " fill="none" id="mockServer-boatMock" style="stroke:#A80036;stroke-width:1.0;"/><polygon fill="#A80036" points="493,308.3902,497,299.3902,493,303.3902,489,299.3902,493,308.3902" style="stroke:#A80036;stroke-width:1.0;"/><polygon fill="#A80036" points="493,247.6902,489,256.6902,493,252.6902,497,256.6902,493,247.6902" style="stroke:#A80036;stroke-width:1.0;"/><!--MD5=[e1c12e8502467e9351e061dd8d10fde7]
link mocksController to mockServer--><path d="M312.73,217.4602 C343.5,217.4602 374.28,217.4602 405.05,217.4602 " fill="none" id="mocksController-mockServer" style="stroke:#A80036;stroke-width:1.0;"/><polygon fill="#A80036" points="410.39,217.4602,401.39,213.4602,405.39,217.4602,401.39,221.4602,410.39,217.4602" style="stroke:#A80036;stroke-width:1.0;"/><polygon fill="#A80036" points="307.5,217.4602,316.5,221.4602,312.5,217.4602,316.5,213.4602,307.5,217.4602" style="stroke:#A80036;stroke-width:1.0;"/><!--MD5=[8de0e6ba79d198b8aac8951b35f7efb8]
link test to mocksController--><path d="M84.69,89.8202 C116.1,115.9302 169.31,160.1802 203.8,188.8502 " fill="none" id="test-mocksController" style="stroke:#A80036;stroke-width:1.0;stroke-dasharray:7.0,7.0;"/><polygon fill="#A80036" points="207.91,192.2702,203.5535,183.4373,204.0677,189.0707,198.4343,189.5849,207.91,192.2702" style="stroke:#A80036;stroke-width:1.0;"/><polygon fill="#A80036" points="80.83,86.6102,85.1865,95.4432,84.6723,89.8097,90.3057,89.2955,80.83,86.6102" style="stroke:#A80036;stroke-width:1.0;"/><text fill="#000000" font-family="Chalkduster" font-size="13" lengthAdjust="spacing" textLength="143" x="165" y="144.874">Control Boat mock</text><!--MD5=[516d95984f043037b92c7c5d42e2649d]
@startuml mock-topology

skinparam DefaultFontName Chalkduster
skinparam DefaultMonospacedFontName Monaco

package comp as "Local Computer" {
    collections "Test" as test
    artifact "Navigation Service" as system
    boundary "DNS Resolver" as resolver
    artifact mockServer [
    AAT Mock Server
      ""127.0.0.1:443""
    ]
    collections "Boat Service Mock" as boatMock
    control "Mocks Controller" as mocksController
}

node "Real Boat Service" as boatService

test <-> system: Do Boat actions
system <-> resolver: Reach Boat Service domain
resolver <-[dotted]> boatService: <size:24><color:red>    X   </color></size>
resolver <- -> mockServer: Configured \n  ""Boat Service: 127.0.0.1""
mockServer <- -> boatMock
mocksController <-> mockServer
test <..> mocksController: Control Boat mock

@enduml

PlantUML version 1.2022.0(Tue Jan 11 18:16:42 EET 2022)
(GPL source distribution)
Java Runtime: OpenJDK Runtime Environment
JVM: OpenJDK 64-Bit Server VM
Default Encoding: UTF-8
Language: en
Country: US
--></g></svg>