<?xml version="1.0" encoding="UTF-8" standalone="no"?><svg xmlns="http://www.w3.org/2000/svg" xmlns:xlink="http://www.w3.org/1999/xlink" contentScriptType="application/ecmascript" contentStyleType="text/css" height="885px" preserveAspectRatio="none" style="width:1226px;height:885px;background:#FFFFFF;" version="1.1" viewBox="0 0 1226 885" width="1226px" zoomAndPan="magnify"><defs><filter height="300%" id="f1kltbg18fdimm" width="300%" x="-1" y="-1"><feGaussianBlur result="blurOut" stdDeviation="2.0"/><feColorMatrix in="blurOut" result="blurOut2" type="matrix" values="0 0 0 0 0 0 0 0 0 0 0 0 0 0 0 0 0 0 .4 0"/><feOffset dx="4.0" dy="4.0" in="blurOut2" result="blurOut3"/><feBlend in="SourceGraphic" in2="blurOut3" mode="normal"/></filter></defs><g><line style="stroke:#A80036;stroke-width:1.0;stroke-dasharray:5.0,5.0;" x1="32" x2="32" y1="60.5363" y2="822.2303"/><line style="stroke:#A80036;stroke-width:1.0;stroke-dasharray:5.0,5.0;" x1="175.5" x2="175.5" y1="60.5363" y2="822.2303"/><line style="stroke:#A80036;stroke-width:1.0;stroke-dasharray:5.0,5.0;" x1="471.5" x2="471.5" y1="60.5363" y2="822.2303"/><line style="stroke:#A80036;stroke-width:1.0;stroke-dasharray:5.0,5.0;" x1="691" x2="691" y1="60.5363" y2="822.2303"/><line style="stroke:#A80036;stroke-width:1.0;stroke-dasharray:5.0,5.0;" x1="837" x2="837" y1="60.5363" y2="822.2303"/><line style="stroke:#A80036;stroke-width:1.0;stroke-dasharray:5.0,5.0;" x1="977" x2="977" y1="60.5363" y2="822.2303"/><line style="stroke:#A80036;stroke-width:1.0;stroke-dasharray:5.0,5.0;" x1="1152" x2="1152" y1="60.5363" y2="822.2303"/><rect fill="#FEFECE" filter="url(#f1kltbg18fdimm)" height="31.8674" style="stroke:#A80036;stroke-width:1.5;" width="47" x="9" y="19.6689"/><rect fill="#FEFECE" filter="url(#f1kltbg18fdimm)" height="31.8674" style="stroke:#A80036;stroke-width:1.5;" width="47" x="5" y="23.6689"/><text fill="#000000" font-family="Chalkduster" font-size="14" lengthAdjust="spacing" textLength="33" x="12" y="44.5761">Test</text><rect fill="#FEFECE" filter="url(#f1kltbg18fdimm)" height="31.8674" style="stroke:#A80036;stroke-width:1.5;" width="47" x="9" y="821.2303"/><rect fill="#FEFECE" filter="url(#f1kltbg18fdimm)" height="31.8674" style="stroke:#A80036;stroke-width:1.5;" width="47" x="5" y="825.2303"/><text fill="#000000" font-family="Chalkduster" font-size="14" lengthAdjust="spacing" textLength="33" x="12" y="846.1375">Test</text><rect fill="#FEFECE" filter="url(#f1kltbg18fdimm)" height="31.8674" style="stroke:#A80036;stroke-width:1.5;" width="164" x="91.5" y="23.6689"/><text fill="#000000" font-family="Chalkduster" font-size="14" lengthAdjust="spacing" textLength="150" x="98.5" y="44.5761">Navigation Service</text><rect fill="#FEFECE" filter="url(#f1kltbg18fdimm)" height="31.8674" style="stroke:#A80036;stroke-width:1.5;" width="164" x="91.5" y="821.2303"/><text fill="#000000" font-family="Chalkduster" font-size="14" lengthAdjust="spacing" textLength="150" x="98.5" y="842.1375">Navigation Service</text><text fill="#000000" font-family="Chalkduster" font-size="14" lengthAdjust="spacing" textLength="110" x="413.5" y="56.5761">TCP/IP Stack</text><path d="M451,14.6689 L451,38.6689 M451,26.6689 L468,26.6689 " fill="none" filter="url(#f1kltbg18fdimm)" style="stroke:#A80036;stroke-width:2.0;"/><ellipse cx="480" cy="26.6689" fill="#FEFECE" filter="url(#f1kltbg18fdimm)" rx="12" ry="12" style="stroke:#A80036;stroke-width:2.0;"/><text fill="#000000" font-family="Chalkduster" font-size="14" lengthAdjust="spacing" textLength="110" x="413.5" y="835.1375">TCP/IP Stack</text><path d="M451,843.0977 L451,867.0977 M451,855.0977 L468,855.0977 " fill="none" filter="url(#f1kltbg18fdimm)" style="stroke:#A80036;stroke-width:2.0;"/><ellipse cx="480" cy="855.0977" fill="#FEFECE" filter="url(#f1kltbg18fdimm)" rx="12" ry="12" style="stroke:#A80036;stroke-width:2.0;"/><text fill="#000000" font-family="Chalkduster" font-size="14" lengthAdjust="spacing" textLength="103" x="637" y="56.5761">DNS Resolver</text><path d="M671,14.6689 L671,38.6689 M671,26.6689 L688,26.6689 " fill="none" filter="url(#f1kltbg18fdimm)" style="stroke:#A80036;stroke-width:2.0;"/><ellipse cx="700" cy="26.6689" fill="#FEFECE" filter="url(#f1kltbg18fdimm)" rx="12" ry="12" style="stroke:#A80036;stroke-width:2.0;"/><text fill="#000000" font-family="Chalkduster" font-size="14" lengthAdjust="spacing" textLength="103" x="637" y="835.1375">DNS Resolver</text><path d="M671,843.0977 L671,867.0977 M671,855.0977 L688,855.0977 " fill="none" filter="url(#f1kltbg18fdimm)" style="stroke:#A80036;stroke-width:2.0;"/><ellipse cx="700" cy="855.0977" fill="#FEFECE" filter="url(#f1kltbg18fdimm)" rx="12" ry="12" style="stroke:#A80036;stroke-width:2.0;"/><rect fill="#FEFECE" filter="url(#f1kltbg18fdimm)" height="50.5363" style="stroke:#A80036;stroke-width:1.5;" width="149" x="761" y="5"/><text fill="#000000" font-family="Chalkduster" font-size="14" lengthAdjust="spacing" textLength="135" x="768" y="25.9072">AAT Mock Server</text><text fill="#000000" font-family="Monaco" font-size="14" lengthAdjust="spacing" textLength="104" x="783.5" y="45.0363">127.0.0.1:443</text><rect fill="#FEFECE" filter="url(#f1kltbg18fdimm)" height="50.5363" style="stroke:#A80036;stroke-width:1.5;" width="149" x="761" y="821.2303"/><text fill="#000000" font-family="Chalkduster" font-size="14" lengthAdjust="spacing" textLength="135" x="768" y="842.1375">AAT Mock Server</text><text fill="#000000" font-family="Monaco" font-size="14" lengthAdjust="spacing" textLength="104" x="783.5" y="861.2667">127.0.0.1:443</text><rect fill="#FEFECE" filter="url(#f1kltbg18fdimm)" height="31.8674" style="stroke:#A80036;stroke-width:1.5;" width="98" x="928" y="19.6689"/><rect fill="#FEFECE" filter="url(#f1kltbg18fdimm)" height="31.8674" style="stroke:#A80036;stroke-width:1.5;" width="98" x="924" y="23.6689"/><text fill="#000000" font-family="Chalkduster" font-size="14" lengthAdjust="spacing" textLength="84" x="931" y="44.5761">Boat Mock</text><rect fill="#FEFECE" filter="url(#f1kltbg18fdimm)" height="31.8674" style="stroke:#A80036;stroke-width:1.5;" width="98" x="928" y="821.2303"/><rect fill="#FEFECE" filter="url(#f1kltbg18fdimm)" height="31.8674" style="stroke:#A80036;stroke-width:1.5;" width="98" x="924" y="825.2303"/><text fill="#000000" font-family="Chalkduster" font-size="14" lengthAdjust="spacing" textLength="84" x="931" y="846.1375">Boat Mock</text><text fill="#000000" font-family="Chalkduster" font-size="14" lengthAdjust="spacing" textLength="140" x="1079" y="56.5761">Mocks Controller</text><ellipse cx="1152" cy="26.6689" fill="#FEFECE" filter="url(#f1kltbg18fdimm)" rx="12" ry="12" style="stroke:#A80036;stroke-width:2.0;"/><polygon fill="#A80036" points="1148,14.6689,1154,9.6689,1152,14.6689,1154,19.6689,1148,14.6689" style="stroke:#A80036;stroke-width:1.0;"/><text fill="#000000" font-family="Chalkduster" font-size="14" lengthAdjust="spacing" textLength="140" x="1079" y="835.1375">Mocks Controller</text><ellipse cx="1152" cy="855.0977" fill="#FEFECE" filter="url(#f1kltbg18fdimm)" rx="12" ry="12" style="stroke:#A80036;stroke-width:2.0;"/><polygon fill="#A80036" points="1148,843.0977,1154,838.0977,1152,843.0977,1154,848.0977,1148,843.0977" style="stroke:#A80036;stroke-width:1.0;"/><polygon fill="#A80036" points="1140,89.8718,1150,93.8718,1140,97.8718,1144,93.8718" style="stroke:#A80036;stroke-width:1.0;"/><line style="stroke:#A80036;stroke-width:1.0;" x1="32.5" x2="1146" y1="93.8718" y2="93.8718"/><text fill="#000000" font-family="Chalkduster" font-size="13" lengthAdjust="spacing" textLength="310" x="39.5" y="88.1944">Tell "Boat Mock" to set expected input to</text><text fill="#000000" font-family="Monaco" font-size="13" lengthAdjust="spacing" textLength="48" x="355.5" y="88.6218">value1</text><polygon fill="#A80036" points="988,138.5427,978,142.5427,988,146.5427,984,142.5427" style="stroke:#A80036;stroke-width:1.0;"/><line style="stroke:#A80036;stroke-width:1.0;" x1="982" x2="1151" y1="142.5427" y2="142.5427"/><text fill="#000000" font-family="Chalkduster" font-size="13" lengthAdjust="spacing" textLength="20" x="994" y="119.5299">Set</text><text fill="#000000" font-family="Monaco" font-size="13" lengthAdjust="spacing" textLength="64" x="1020" y="119.9572">expected</text><text fill="#000000" font-family="Chalkduster" font-size="13" lengthAdjust="spacing" textLength="0" x="1090" y="119.5299"/><text fill="#000000" font-family="Chalkduster" font-size="13" lengthAdjust="spacing" textLength="59" x="1006" y="136.8653">input to</text><text fill="#000000" font-family="Monaco" font-size="13" lengthAdjust="spacing" textLength="48" x="1071" y="137.2927">value1</text><polygon fill="#A80036" points="1140,169.8781,1150,173.8781,1140,177.8781,1144,173.8781" style="stroke:#A80036;stroke-width:1.0;"/><line style="stroke:#A80036;stroke-width:1.0;" x1="32.5" x2="1146" y1="173.8781" y2="173.8781"/><text fill="#000000" font-family="Chalkduster" font-size="13" lengthAdjust="spacing" textLength="266" x="39.5" y="168.2008">Tell "Boat Mock" to set response to</text><text fill="#000000" font-family="Monaco" font-size="13" lengthAdjust="spacing" textLength="48" x="311.5" y="168.6281">value2</text><polygon fill="#A80036" points="988,217.8048,978,221.8048,988,225.8048,984,221.8048" style="stroke:#A80036;stroke-width:1.0;"/><line style="stroke:#A80036;stroke-width:1.0;" x1="982" x2="1151" y1="221.8048" y2="221.8048"/><text fill="#000000" font-family="Chalkduster" font-size="13" lengthAdjust="spacing" textLength="108" x="994" y="198.792">Set configured</text><text fill="#000000" font-family="Chalkduster" font-size="13" lengthAdjust="spacing" textLength="85" x="1006" y="216.1274">response to</text><text fill="#000000" font-family="Monaco" font-size="13" lengthAdjust="spacing" textLength="48" x="1097" y="216.5548">value2</text><polygon fill="#A80036" points="163.5,265.7314,173.5,269.7314,163.5,273.7314,167.5,269.7314" style="stroke:#A80036;stroke-width:1.0;"/><line style="stroke:#A80036;stroke-width:1.0;" x1="32.5" x2="169.5" y1="269.7314" y2="269.7314"/><text fill="#000000" font-family="Chalkduster" font-size="13" lengthAdjust="spacing" textLength="104" x="39.5" y="246.7186">Send GraphQL</text><text fill="#000000" font-family="Chalkduster" font-size="13" lengthAdjust="spacing" textLength="53" x="51.5" y="264.054">request</text><text fill="#000000" font-family="Monaco" font-size="13" lengthAdjust="spacing" textLength="48" x="110.5" y="264.4814">paddle</text><polygon fill="#A80036" points="459.5,348.3289,469.5,352.3289,459.5,356.3289,463.5,352.3289" style="stroke:#A80036;stroke-width:1.0;"/><line style="stroke:#A80036;stroke-width:1.0;" x1="175.5" x2="465.5" y1="352.3289" y2="352.3289"/><text fill="#000000" font-family="Chalkduster" font-size="13" lengthAdjust="spacing" textLength="163" x="182.5" y="294.6452">Send HTTPS request to</text><text fill="#000000" font-family="Chalkduster" font-size="13" lengthAdjust="spacing" textLength="0" x="194.5" y="311.9806"/><text fill="#000000" font-family="Monaco" font-size="13" lengthAdjust="spacing" textLength="184" x="194.5" y="312.408">boat.service.domain.com</text><text fill="#000000" font-family="Chalkduster" font-size="13" lengthAdjust="spacing" textLength="0" x="206.5" y="329.3161"/><text fill="#000000" font-family="Monaco" font-size="13" lengthAdjust="spacing" textLength="248" x="206.5" y="329.7434">/api/v1/essentialActions/paddle</text><text fill="#000000" font-family="Chalkduster" font-size="13" lengthAdjust="spacing" textLength="30" x="194.5" y="346.6515">with</text><text fill="#000000" font-family="Monaco" font-size="13" lengthAdjust="spacing" textLength="40" x="230.5" y="347.0789">input</text><polygon fill="#A80036" points="679.5,396.2555,689.5,400.2555,679.5,404.2555,683.5,400.2555" style="stroke:#A80036;stroke-width:1.0;"/><line style="stroke:#A80036;stroke-width:1.0;" x1="471.5" x2="685.5" y1="400.2555" y2="400.2555"/><text fill="#000000" font-family="Chalkduster" font-size="13" lengthAdjust="spacing" textLength="56" x="478.5" y="377.2427">Resolve</text><text fill="#000000" font-family="Chalkduster" font-size="13" lengthAdjust="spacing" textLength="0" x="490.5" y="394.5781"/><text fill="#000000" font-family="Monaco" font-size="13" lengthAdjust="spacing" textLength="184" x="490.5" y="395.0055">boat.service.domain.com</text><line style="stroke:#A80036;stroke-width:1.0;" x1="691.5" x2="733.5" y1="464.029" y2="464.029"/><line style="stroke:#A80036;stroke-width:1.0;" x1="733.5" x2="733.5" y1="464.029" y2="477.029"/><line style="stroke:#A80036;stroke-width:1.0;" x1="692.5" x2="733.5" y1="477.029" y2="477.029"/><polygon fill="#A80036" points="702.5,473.029,692.5,477.029,702.5,481.029,698.5,477.029" style="stroke:#A80036;stroke-width:1.0;"/><text fill="#000000" font-family="Chalkduster" font-size="13" lengthAdjust="spacing" textLength="58" x="698.5" y="425.1693">Consult</text><text fill="#000000" font-family="Chalkduster" font-size="13" lengthAdjust="spacing" textLength="38" x="710.5" y="441.7605">local</text><text fill="#000000" font-family="Chalkduster" font-size="13" lengthAdjust="spacing" textLength="34" x="710.5" y="458.3516">data</text><polygon fill="#A80036" points="482.5,504.3644,472.5,508.3644,482.5,512.3644,478.5,508.3644" style="stroke:#A80036;stroke-width:1.0;"/><line style="stroke:#A80036;stroke-width:1.0;" x1="476.5" x2="690.5" y1="508.3644" y2="508.3644"/><text fill="#000000" font-family="Monaco" font-size="13" lengthAdjust="spacing" textLength="72" x="488.5" y="503.1144">127.0.0.1</text><polygon fill="#A80036" points="825.5,552.291,835.5,556.291,825.5,560.291,829.5,556.291" style="stroke:#A80036;stroke-width:1.0;"/><line style="stroke:#A80036;stroke-width:1.0;" x1="471.5" x2="831.5" y1="556.291" y2="556.291"/><text fill="#000000" font-family="Chalkduster" font-size="13" lengthAdjust="spacing" textLength="102" x="478.5" y="533.2782">HTTPS request</text><text fill="#000000" font-family="Chalkduster" font-size="13" lengthAdjust="spacing" textLength="0" x="490.5" y="550.6137"/><text fill="#000000" font-family="Monaco" font-size="13" lengthAdjust="spacing" textLength="248" x="490.5" y="551.041">/api/v1/essentialActions/paddle</text><text fill="#000000" font-family="Chalkduster" font-size="13" lengthAdjust="spacing" textLength="30" x="744.5" y="550.6137">with</text><text fill="#000000" font-family="Monaco" font-size="13" lengthAdjust="spacing" textLength="40" x="780.5" y="551.041">input</text><polygon fill="#A80036" points="965,583.6265,975,587.6265,965,591.6265,969,587.6265" style="stroke:#A80036;stroke-width:1.0;"/><line style="stroke:#A80036;stroke-width:1.0;" x1="837.5" x2="971" y1="587.6265" y2="587.6265"/><text fill="#000000" font-family="Monaco" font-size="13" lengthAdjust="spacing" textLength="104" x="844.5" y="582.3765">handle(input)</text><line style="stroke:#A80036;stroke-width:1.0;" x1="977" x2="1019" y1="636.2974" y2="636.2974"/><line style="stroke:#A80036;stroke-width:1.0;" x1="1019" x2="1019" y1="636.2974" y2="649.2974"/><line style="stroke:#A80036;stroke-width:1.0;" x1="978" x2="1019" y1="649.2974" y2="649.2974"/><polygon fill="#A80036" points="988,645.2974,978,649.2974,988,653.2974,984,649.2974" style="stroke:#A80036;stroke-width:1.0;"/><text fill="#000000" font-family="Chalkduster" font-size="13" lengthAdjust="spacing" textLength="45" x="984" y="613.2846">Check</text><text fill="#000000" font-family="Monaco" font-size="13" lengthAdjust="spacing" textLength="40" x="1035" y="613.7119">input</text><text fill="#000000" font-family="Chalkduster" font-size="13" lengthAdjust="spacing" textLength="55" x="996" y="630.62">against</text><text fill="#000000" font-family="Monaco" font-size="13" lengthAdjust="spacing" textLength="64" x="1057" y="631.0474">expected</text><polygon fill="#A80036" points="482.5,676.6328,472.5,680.6328,482.5,684.6328,478.5,680.6328" style="stroke:#A80036;stroke-width:1.0;"/><line style="stroke:#A80036;stroke-width:1.0;" x1="476.5" x2="976" y1="680.6328" y2="680.6328"/><text fill="#000000" font-family="Chalkduster" font-size="13" lengthAdjust="spacing" textLength="85" x="488.5" y="674.9555">Configured</text><text fill="#000000" font-family="Monaco" font-size="13" lengthAdjust="spacing" textLength="64" x="579.5" y="675.3828">response</text><polygon fill="#A80036" points="186.5,707.9683,176.5,711.9683,186.5,715.9683,182.5,711.9683" style="stroke:#A80036;stroke-width:1.0;"/><line style="stroke:#A80036;stroke-width:1.0;" x1="180.5" x2="470.5" y1="711.9683" y2="711.9683"/><text fill="#000000" font-family="Monaco" font-size="13" lengthAdjust="spacing" textLength="64" x="192.5" y="706.7183">response</text><polygon fill="#A80036" points="43.5,739.3037,33.5,743.3037,43.5,747.3037,39.5,743.3037" style="stroke:#A80036;stroke-width:1.0;"/><line style="stroke:#A80036;stroke-width:1.0;" x1="37.5" x2="174.5" y1="743.3037" y2="743.3037"/><text fill="#000000" font-family="Monaco" font-size="13" lengthAdjust="spacing" textLength="64" x="49.5" y="738.0537">response</text><line style="stroke:#A80036;stroke-width:1.0;" x1="32.5" x2="74.5" y1="791.2303" y2="791.2303"/><line style="stroke:#A80036;stroke-width:1.0;" x1="74.5" x2="74.5" y1="791.2303" y2="804.2303"/><line style="stroke:#A80036;stroke-width:1.0;" x1="33.5" x2="74.5" y1="804.2303" y2="804.2303"/><polygon fill="#A80036" points="43.5,800.2303,33.5,804.2303,43.5,808.2303,39.5,804.2303" style="stroke:#A80036;stroke-width:1.0;"/><text fill="#000000" font-family="Chalkduster" font-size="13" lengthAdjust="spacing" textLength="63" x="39.5" y="768.2175">Validate</text><text fill="#000000" font-family="Chalkduster" font-size="13" lengthAdjust="spacing" textLength="0" x="51.5" y="785.553"/><text fill="#000000" font-family="Monaco" font-size="13" lengthAdjust="spacing" textLength="64" x="51.5" y="785.9803">response</text><!--MD5=[ba3993bc956b2b7fb2c9ded082fb6aad]
@startuml mock-sequence

skinparam DefaultFontName Chalkduster
skinparam DefaultMonospacedFontName Monaco

collections "Test" as test
participant "Navigation Service" as system
boundary "TCP/IP Stack" as tcp
boundary "DNS Resolver" as resolver
participant mockServer [
AAT Mock Server
""127.0.0.1:443""
]
collections "Boat Mock" as boatMock
control "Mocks Controller" as mocksController

test -> mocksController: Tell "Boat Mock" to set expected input to ""value1""
mocksController -> boatMock: Set ""expected"" \n  input to ""value1""
test -> mocksController: Tell "Boat Mock" to set response to ""value2""
mocksController -> boatMock: Set configured \n  response to ""value2""

test -> system: Send GraphQL \n  request ""paddle""

system -> tcp: Send HTTPS request to \n  ""boat.service.domain.com""\n    ""/api/v1/essentialActions/paddle""\n  with ""input""
tcp -> resolver : Resolve \n  ""boat.service.domain.com""
resolver -> resolver : Consult \n  local \n  data
resolver -> tcp: ""127.0.0.1""
tcp -> mockServer: HTTPS request \n  ""/api/v1/essentialActions/paddle"" with ""input""
mockServer -> boatMock: ""handle(input)""
boatMock -> boatMock: Check ""input""\n  against ""expected""
boatMock -> tcp: Configured ""response""
tcp -> system: ""response""

system -> test: ""response""
test -> test: Validate \n  ""response""

@enduml

PlantUML version 1.2022.0(Tue Jan 11 18:16:42 EET 2022)
(GPL source distribution)
Java Runtime: OpenJDK Runtime Environment
JVM: OpenJDK 64-Bit Server VM
Default Encoding: UTF-8
Language: en
Country: US
--></g></svg>